# xmcd
#
# Track frame offsets:
# 150
# 16959
# 33768
# 48691
# 66689
# 80910
# 99834
# 116512
# 132861
# 152073
# 175517
# 197800
# 214384
# 239670
# 254708
# 273653
# 287287
#
# Disc length: 4109 seconds
#
#
# Revision: 0
# Processed by: cddbd v1.5.2PL0 Copyright (c) Steve Scherf et al.
# Submitted via: FreeRIP 2.945 
#
DISCID=fe100b11
DTITLE=Faith Hill - There You'll Be: The Best of Faith Hill
DYEAR=2001
DGENRE=country
TTITLE0=There you'll be
TTITLE1=This Kiss
TTITLE2=Breathe
TTITLE3=Way You Love Me
TTITLE4=Let Me Let Go
TTITLE5=Piece of My Heart
TTITLE6=If My Heart Had Wings
TTITLE7=There will come a day
TTITLE8=Love Will Always Win
TTITLE9=My Wild Frontier
TTITLE10=You Give Me Love
TTITLE11=Somewhere Down the Road
TTITLE12=Over the Rainbow
TTITLE13=Breathe
TTITLE14=Way You Love Me
TTITLE15=If I should Fall Behind
TTITLE16=Unknown
EXTD=
EXTT0=
EXTT1=
EXTT2=
EXTT3=
EXTT4=
EXTT5=
EXTT6=
EXTT7=
EXTT8=
EXTT9=
EXTT10=
EXTT11=
EXTT12=
EXTT13=
EXTT14=
EXTT15=
EXTT16=
PLAYORDER=
